<svg version="1.1" id="Layer_1" xmlns="http://www.w3.org/2000/svg" xmlns:xlink="http://www.w3.org/1999/xlink" x="0px" y="0px"
	 width="100%" viewBox="0 0 1920 1080" enable-background="new 0 0 1920 1080" xml:space="preserve">
<path fill="#000000" opacity="1.000000" stroke="none" 
	d="
M1146.000000,1081.000000 
	C764.000061,1081.000000 382.500122,1081.000000 1.000154,1081.000000 
	C1.000102,721.000122 1.000102,361.000275 1.000051,1.000199 
	C2.499867,1.000000 3.999734,1.000000 5.499601,1.000000 
	C643.999512,1.000000 1282.499390,1.000000 1920.999512,1.000000 
	C1920.999634,360.999664 1920.999634,720.999329 1920.999756,1080.999512 
	C1662.833374,1081.000000 1404.666626,1081.000000 1146.000000,1081.000000 
M1349.500000,818.003296 
	C1513.593262,818.003296 1677.686646,818.003296 1841.718262,818.003296 
	C1841.718262,646.028748 1841.718262,474.624786 1841.718262,302.996643 
	C1839.627563,302.996643 1837.815063,302.996613 1836.002563,302.996613 
	C1769.170166,302.996613 1702.337891,302.996613 1635.505493,302.996613 
	C1119.179565,302.996613 602.853638,302.999054 86.527725,302.952759 
	C82.495148,302.952393 79.846764,302.756042 79.852837,308.519073 
	C80.030418,477.016479 79.996048,645.514099 80.007149,814.011658 
	C80.007233,815.280701 80.166656,816.549744 80.264053,818.003296 
	C503.220795,818.003296 925.860413,818.003296 1349.500000,818.003296 
z"/>
<path fill="#FDFDFD" opacity="1.000000" stroke="none" 
	d="
M1349.000000,818.003296 
	C925.860413,818.003296 503.220795,818.003296 80.264053,818.003296 
	C80.166656,816.549744 80.007233,815.280701 80.007149,814.011658 
	C79.996048,645.514099 80.030418,477.016479 79.852837,308.519073 
	C79.846764,302.756042 82.495148,302.952393 86.527725,302.952759 
	C602.853638,302.999054 1119.179565,302.996613 1635.505493,302.996613 
	C1702.337891,302.996613 1769.170166,302.996613 1836.002563,302.996613 
	C1837.815063,302.996613 1839.627563,302.996643 1841.718262,302.996643 
	C1841.718262,474.624786 1841.718262,646.028748 1841.718262,818.003296 
	C1677.686646,818.003296 1513.593262,818.003296 1349.000000,818.003296 
M237.695816,606.884644 
	C216.889328,592.466614 198.352600,575.562927 182.912689,555.491882 
	C162.878647,529.448669 148.554947,501.095520 152.006149,466.975861 
	C152.924194,457.899750 155.387878,448.554688 159.187103,440.271057 
	C173.470459,409.128204 214.354279,396.577759 244.287918,414.406952 
	C254.033890,420.211884 264.750458,417.033905 269.550568,407.769897 
	C274.333405,398.539246 270.793488,387.810455 260.943146,383.006104 
	C254.413269,379.821259 247.716415,376.818787 240.821213,374.573212 
	C220.970490,368.108429 200.895096,368.916229 181.610199,376.128876 
	C147.004150,389.071808 126.271278,414.239288 118.635551,450.499542 
	C113.479187,474.985901 115.949173,498.785065 124.148018,522.035706 
	C134.686508,551.921143 152.727280,577.202759 174.737564,599.587280 
	C194.519012,619.705139 216.454453,637.117798 241.611572,650.408447 
	C268.206482,664.458740 295.214203,665.343750 321.622559,652.026794 
	C365.468781,629.916443 400.991211,597.917053 426.988495,556.084900 
	C446.287781,525.030518 456.739136,491.635620 450.246155,454.437836 
	C447.665253,439.652191 442.795776,425.831940 434.476837,413.374359 
	C413.169739,381.467041 374.363403,365.487488 335.041687,374.715210 
	C317.498016,378.832214 303.255646,387.708405 291.453033,400.966675 
	C278.945801,415.016510 271.853455,431.713257 268.445770,449.966492 
	C267.478302,455.148743 265.345612,457.479126 260.478699,459.653320 
	C228.416580,473.976593 214.670258,506.347687 227.235703,539.128723 
	C235.188858,559.877136 251.124527,572.877686 272.914948,576.744507 
	C296.118530,580.862244 316.178925,573.493042 331.187408,554.987549 
	C345.735840,537.049255 348.843048,516.659851 341.179321,494.955231 
	C335.480927,478.816650 324.565338,466.979279 308.779175,460.219086 
	C303.705597,458.046387 303.041534,455.034454 304.259644,450.522156 
	C310.858459,426.078583 328.402313,409.072021 353.933533,407.857361 
	C387.098358,406.279541 410.194000,428.496704 415.298187,460.137726 
	C418.675659,481.074768 415.459625,501.589508 406.022247,520.869934 
	C384.021301,565.817688 348.969421,597.623108 305.214600,620.486572 
	C291.120148,627.851501 276.379120,628.129639 262.053162,621.022522 
	C253.876053,616.965759 246.207489,611.883911 237.695816,606.884644 
M1539.500122,408.966309 
	C1536.667969,408.966309 1533.835693,408.968079 1531.003540,408.966034 
	C1517.067261,408.955811 1517.066040,408.955444 1517.055298,422.929169 
	C1517.051392,427.987885 1517.054688,433.046631 1517.054688,438.105347 
	C1516.278198,438.540741 1515.501831,438.976105 1514.725342,439.411499 
	C1513.078979,437.188507 1511.692871,434.699829 1509.741211,432.788574 
	C1501.472778,424.691467 1491.913452,418.442871 1481.376709,413.670135 
	C1464.059570,405.826111 1445.866089,404.491119 1427.171021,405.853302 
	C1401.976685,407.689056 1380.620483,417.889404 1362.710327,435.260925 
	C1341.911865,455.433929 1332.283325,480.937653 1329.859863,509.257751 
	C1328.032837,530.607178 1331.187378,551.453430 1339.902954,571.142944 
	C1361.850830,620.726562 1409.285156,643.777222 1460.722534,633.639160 
	C1480.638794,629.713745 1498.233643,620.249451 1512.300781,605.074707 
	C1513.266235,604.033203 1514.438721,603.183533 1516.432129,601.444641 
	C1516.694458,604.074036 1516.965332,605.618469 1516.982422,607.165710 
	C1517.048706,613.162842 1517.048218,619.160767 1517.046509,625.158447 
	C1517.044678,632.002625 1517.032593,631.994446 1524.076904,631.986511 
	C1535.406006,631.973877 1546.734985,631.959534 1558.064087,631.972656 
	C1565.122070,631.980835 1565.123047,632.002869 1565.123291,624.914001 
	C1565.125610,559.604919 1565.127930,494.295868 1565.129272,428.986816 
	C1565.129395,423.655487 1565.052734,418.322845 1565.149292,412.993317 
	C1565.203125,410.022705 1564.020752,408.843750 1560.991333,408.910461 
	C1554.163696,409.060822 1547.330811,408.963928 1539.500122,408.966309 
M663.500000,538.079834 
	C687.831116,538.075317 712.164612,537.888123 736.491333,538.212097 
	C741.699158,538.281372 743.533691,536.737854 743.982544,531.730042 
	C745.632385,513.324280 744.594666,495.253296 738.904846,477.526337 
	C728.280334,444.424988 706.397522,422.446991 673.660278,411.219299 
	C655.548096,405.007507 636.898499,404.244324 617.933899,405.868286 
	C598.222229,407.556244 580.217712,413.708282 564.026855,424.953491 
	C536.965820,443.748474 523.317322,470.760773 519.608948,502.558105 
	C517.262695,522.676270 518.072876,543.099976 525.245850,562.629150 
	C540.255737,603.495117 569.702759,626.971802 612.212219,634.330505 
	C631.481934,637.666321 650.813171,636.570312 669.572266,631.265259 
	C689.903870,625.515625 707.029724,614.246826 720.567383,597.844116 
	C728.238647,588.549377 734.341553,578.386108 737.826294,566.411194 
	C736.375000,565.964050 735.304382,565.350708 734.231262,565.346375 
	C719.566467,565.287109 704.899963,565.220764 690.238342,565.447266 
	C688.647705,565.471863 686.457825,566.934570 685.605347,568.362671 
	C675.889893,584.638916 661.785461,593.815002 642.896790,595.943237 
	C619.810669,598.544312 599.710388,592.799133 583.669739,575.393066 
	C575.671021,566.713440 571.331848,556.286499 569.106323,544.731201 
	C567.884888,538.389587 567.651123,538.087219 574.008179,538.084351 
	C603.505432,538.071106 633.002747,538.079346 663.500000,538.079834 
M954.889832,407.404633 
	C938.493652,410.608765 923.363037,416.799866 909.987488,426.891937 
	C887.987854,443.490967 875.224548,465.705231 869.948669,492.605042 
	C865.200439,516.814758 866.001038,540.649658 874.516724,563.864441 
	C889.405518,604.453247 919.167175,627.183105 961.243774,634.331726 
	C980.358093,637.579163 999.550781,636.783813 1018.103821,631.174072 
	C1049.313965,621.737427 1071.877197,602.131226 1084.677734,571.794922 
	C1087.000488,566.290222 1086.473145,565.287659 1080.696899,565.286621 
	C1067.698975,565.284180 1054.697632,565.482300 1041.705078,565.223938 
	C1037.532715,565.141052 1035.400391,566.760071 1032.847900,569.949524 
	C1027.822388,576.228882 1022.596924,582.839478 1016.090942,587.344666 
	C1000.431274,598.188843 982.228088,598.811707 964.655396,594.550293 
	C938.992065,588.326843 923.011292,571.419556 917.738159,545.123108 
	C916.478699,538.842163 917.179504,538.065491 923.314209,538.065918 
	C973.306580,538.069397 1023.299011,538.070984 1073.291382,538.073059 
	C1078.290649,538.073242 1083.307739,538.303772 1088.277222,537.918762 
	C1089.611572,537.815308 1091.796021,535.927673 1091.907715,534.705139 
	C1093.642822,515.748169 1093.769287,496.866302 1088.003174,478.409515 
	C1080.357788,453.937347 1065.874756,434.719910 1043.996948,421.230804 
	C1027.925781,411.321838 1010.317078,405.959229 991.534485,405.535889 
	C979.615295,405.267181 967.659851,406.604736 954.889832,407.404633 
M1140.316040,408.971008 
	C1127.654419,408.963196 1114.992798,408.945251 1102.331177,408.952820 
	C1097.704956,408.955597 1096.784546,410.310150 1098.514648,414.765167 
	C1111.968872,449.410431 1125.418579,484.057434 1138.931152,518.679993 
	C1153.040894,554.832825 1167.251953,590.946045 1181.313110,627.117615 
	C1182.642944,630.538635 1184.440674,632.071411 1188.276855,632.029785 
	C1203.935547,631.859863 1219.598633,631.876404 1235.257324,632.067993 
	C1239.044800,632.114319 1240.895020,630.761108 1242.200562,627.239563 
	C1245.891357,617.283752 1249.994263,607.481506 1253.851929,597.586426 
	C1263.601929,572.576904 1273.285034,547.541321 1283.037231,522.532593 
	C1289.537109,505.864288 1296.129272,489.232056 1302.643799,472.569489 
	C1310.262817,453.082001 1317.838257,433.577484 1325.443726,414.084656 
	C1326.794678,410.622223 1326.268921,408.845764 1321.933838,408.899323 
	C1308.274414,409.067993 1294.610474,409.049683 1280.950928,408.887665 
	C1277.667603,408.848694 1276.105713,410.272064 1275.104980,413.100525 
	C1271.008545,424.677948 1266.826416,436.225037 1262.711792,447.796173 
	C1248.388306,488.076202 1234.087158,528.364136 1219.757935,568.642212 
	C1217.526489,574.914185 1215.194214,581.150330 1212.381592,588.844849 
	C1211.052002,586.285767 1210.361084,585.248779 1209.947144,584.111023 
	C1207.458618,577.272278 1205.041138,570.407654 1202.586182,563.556702 
	C1194.245361,540.281006 1185.877563,517.014893 1177.560059,493.730896 
	C1168.134277,467.344421 1158.562500,441.006958 1149.524414,414.487946 
	C1147.897461,409.714813 1145.572510,408.478058 1140.316040,408.971008 
M781.880676,538.500000 
	C781.878357,567.817444 781.935730,597.135071 781.804810,626.451965 
	C781.786499,630.535034 783.063293,632.109619 787.241638,632.047302 
	C799.732117,631.861084 812.228394,631.859924 824.719299,632.024658 
	C828.653137,632.076538 829.870544,630.681458 829.867126,626.773682 
	C829.782227,530.326172 829.778992,433.878601 829.878845,337.431183 
	C829.883301,333.132660 828.289856,332.020905 824.293213,332.084595 
	C812.636047,332.270386 800.973877,332.143188 789.313660,332.141205 
	C781.872925,332.139923 781.873962,332.141907 781.874268,339.607605 
	C781.876587,405.571747 781.878479,471.535858 781.880676,538.500000 
M1664.026123,601.500000 
	C1664.024902,574.177551 1663.764771,546.851501 1664.154297,519.534607 
	C1664.302856,509.119812 1665.129395,498.570221 1667.092651,488.360046 
	C1669.954590,473.476288 1678.899658,462.966980 1693.417847,457.674591 
	C1704.223755,453.735504 1715.449585,452.557007 1726.839722,453.134125 
	C1731.140625,453.352051 1732.294434,451.769989 1732.209961,447.712860 
	C1731.991333,437.221558 1732.117920,426.722809 1732.125122,416.227051 
	C1732.132690,405.262299 1732.132202,405.126831 1721.322021,405.919830 
	C1699.740967,407.502991 1682.232056,416.875763 1668.781250,433.835938 
	C1667.756958,435.127625 1666.603271,436.316833 1665.509766,437.553650 
	C1665.020508,437.370453 1664.531250,437.187256 1664.041992,437.004059 
	C1664.041992,429.750427 1663.823120,422.487854 1664.120239,415.246399 
	C1664.313110,410.545258 1662.837891,408.744690 1657.906616,408.867554 
	C1645.918945,409.166260 1633.911865,409.197754 1621.926880,408.848114 
	C1616.888672,408.701111 1615.848511,410.558258 1615.901978,415.188629 
	C1616.131348,435.011383 1616.010620,454.838257 1616.011108,474.663605 
	C1616.012451,525.143311 1616.041260,575.623108 1615.949097,626.102661 
	C1615.942017,630.005432 1616.315430,632.233704 1621.205688,632.103882 
	C1633.858398,631.768005 1646.526611,631.893433 1659.186646,632.025757 
	C1662.908569,632.064697 1664.174072,630.627869 1664.093628,626.988953 
	C1663.913330,618.829468 1664.030273,610.663391 1664.026123,601.500000 
M1553.209839,739.519287 
	C1553.203491,744.352112 1553.331665,749.190125 1553.147949,754.016174 
	C1553.005615,757.755981 1555.041748,758.495178 1558.153076,758.477234 
	C1561.009521,758.460754 1563.714722,758.427551 1563.693115,754.542664 
	C1563.641113,745.213318 1563.964600,735.856079 1563.341187,726.563416 
	C1562.756714,717.852356 1555.917358,712.060730 1547.210815,711.078247 
	C1539.366821,710.192993 1532.808838,712.315125 1527.671509,718.411377 
	C1519.430298,709.857971 1510.469116,708.098694 1500.185913,713.409241 
	C1499.352905,713.839478 1497.746338,712.530029 1496.456665,712.368408 
	C1493.775391,712.032227 1490.940918,711.402832 1488.434204,712.001831 
	C1487.544067,712.214478 1487.238647,715.620483 1487.003418,717.608643 
	C1486.790527,719.409363 1487.072144,721.264282 1487.074463,723.095398 
	C1487.087036,733.260986 1487.159668,743.427490 1487.039795,753.591675 
	C1486.997070,757.220825 1488.332031,758.547913 1492.051636,758.548584 
	C1495.986206,758.549316 1497.502441,756.948792 1497.497314,753.231934 
	C1497.486938,745.735291 1497.280640,738.223694 1497.677856,730.746033 
	C1498.067383,723.413269 1502.389282,719.665649 1509.253052,719.879211 
	C1515.800903,720.083008 1520.137695,724.562317 1520.252563,731.515686 
	C1520.373779,738.846313 1520.393677,746.181824 1520.262939,753.511780 
	C1520.202148,756.929016 1520.960449,758.747131 1524.979858,758.549072 
	C1528.539185,758.373657 1531.087280,758.294189 1530.899292,753.569153 
	C1530.601685,746.082092 1530.779541,738.573547 1530.852051,731.075012 
	C1530.916748,724.381470 1535.192993,719.967712 1541.531372,719.884949 
	C1548.866455,719.789185 1552.824951,723.385010 1553.140869,730.532166 
	C1553.258423,733.193970 1553.195801,735.863831 1553.209839,739.519287 
M1283.561890,698.294434 
	C1283.561890,703.841492 1283.561890,709.388611 1283.561890,715.901245 
	C1269.926880,709.032227 1258.228394,708.294434 1249.208862,720.795776 
	C1243.662964,728.482544 1244.360352,742.887756 1250.016968,749.978821 
	C1257.848145,759.795776 1265.678101,760.951599 1282.417725,754.605347 
	C1284.245972,758.975952 1288.328613,759.778870 1291.756958,758.084106 
	C1293.375732,757.283997 1293.805786,752.978943 1293.837769,750.250977 
	C1294.021606,734.590881 1293.889404,718.927429 1293.938477,703.265381 
	C1293.961914,695.773071 1290.787598,693.912903 1283.561890,698.294434 
M706.610168,748.789978 
	C709.741943,753.872009 714.337341,757.231995 720.038025,758.389709 
	C727.192688,759.842896 734.071045,758.669739 740.389343,752.492920 
	C740.078735,759.890869 744.549988,758.653809 748.074341,758.472229 
	C752.368835,758.251099 750.998657,754.689331 751.013062,752.340393 
	C751.118286,735.196289 751.006226,718.050781 751.132874,700.906921 
	C751.159851,697.255981 749.968445,695.892578 746.217224,696.026611 
	C742.804260,696.148560 740.315002,696.405579 740.493591,700.767517 
	C740.694702,705.679932 740.539856,710.606873 740.539856,716.204895 
	C738.146606,714.935547 736.627563,714.013977 735.017639,713.296204 
	C728.286133,710.295166 721.481262,710.165100 714.761536,713.240051 
	C703.434753,718.423218 698.432068,735.498108 706.610168,748.789978 
M611.524658,711.821045 
	C609.773193,713.332947 609.271912,716.496521 605.361450,714.250305 
	C589.487061,705.131592 572.039368,715.727478 571.379700,733.196350 
	C570.811707,748.241394 581.177307,760.874268 596.613586,758.673828 
	C600.728516,758.087280 604.661621,756.225525 608.981934,754.852722 
	C610.323486,759.669678 614.520569,759.527100 617.717529,758.194519 
	C619.331055,757.522095 620.255005,753.584717 620.321716,751.092285 
	C620.602234,740.610657 620.457520,730.117249 620.437500,719.628113 
	C620.422424,711.759033 620.145813,711.509277 611.524658,711.821045 
M816.625977,714.182007 
	C806.964844,708.832092 795.995361,710.116211 789.077637,717.406799 
	C781.400574,725.497681 780.245728,739.239563 786.440918,748.780762 
	C793.521179,759.684998 801.471619,761.085571 820.176514,754.517883 
	C821.297119,759.323608 825.085205,759.232849 828.700806,758.453491 
	C832.963196,757.534790 831.565796,753.728088 831.599487,750.977234 
	C831.734253,739.981018 831.804749,728.978821 831.538574,717.987549 
	C831.488464,715.917053 830.281128,712.771729 828.740051,712.093506 
	C826.305115,711.021484 822.883789,710.366333 820.912964,714.049194 
	C820.572815,714.684753 818.563171,714.426819 816.625977,714.182007 
M565.146118,743.750610 
	C566.023315,735.661255 562.546143,729.975708 554.914185,727.116760 
	C549.179382,724.968506 543.206665,723.317383 537.739624,720.631409 
	C532.378845,717.997620 532.652466,712.414246 537.793640,709.326538 
	C543.119507,706.127808 548.305664,707.131653 552.480957,712.942505 
	C555.458130,717.085876 559.258362,715.270996 562.859741,715.436829 
	C562.593384,712.557312 562.700745,709.570190 561.914673,706.840332 
	C561.472046,705.303345 559.736145,703.925049 558.273010,702.931641 
	C550.663269,697.765320 542.501587,697.265381 534.023315,700.511902 
	C527.358521,703.064026 523.316528,708.889221 523.332825,715.810486 
	C523.348694,722.529358 527.150635,727.763123 534.164429,730.240479 
	C539.328369,732.064453 544.857361,733.058411 549.717163,735.450989 
	C552.035095,736.592163 554.438354,740.072266 554.546387,742.589783 
	C554.701050,746.193420 551.749207,748.834045 547.760864,749.364685 
	C542.257385,750.096924 537.733826,749.223938 534.866394,743.479919 
	C532.765930,739.272461 528.040588,740.560608 525.030273,741.653137 
	C521.556213,742.913879 523.846680,746.152161 525.009521,748.403625 
	C530.137573,758.332764 539.214783,759.334351 548.884644,758.669434 
	C556.434875,758.150269 562.283508,752.824707 565.146118,743.750610 
M1045.870239,714.808716 
	C1035.181885,708.349182 1023.437561,710.056702 1015.751648,719.187805 
	C1008.779541,727.470886 1009.056030,742.650879 1016.334045,751.165649 
	C1024.422363,760.628296 1035.278809,761.421936 1048.773560,753.276245 
	C1048.453125,759.252319 1052.385620,758.986511 1056.344116,758.585083 
	C1061.275513,758.084961 1059.462646,754.170776 1059.505737,751.614014 
	C1059.696777,740.288452 1059.614502,728.957703 1059.567749,717.629089 
	C1059.557983,715.259338 1060.378418,712.129150 1056.636597,711.841980 
	C1053.784058,711.623047 1050.039307,709.917419 1049.015991,714.863464 
	C1048.955444,715.155579 1047.369507,715.131958 1045.870239,714.808716 
M899.440491,711.647644 
	C886.973633,714.260925 878.903198,730.788940 885.229431,744.727173 
	C887.290039,749.267334 891.242859,753.739014 895.495667,756.326538 
	C903.897766,761.438477 912.609314,759.264465 920.905579,753.683899 
	C921.268982,760.285156 925.777344,758.641602 929.107239,758.534424 
	C933.101624,758.406006 931.792419,754.964172 931.815552,752.780884 
	C931.940735,740.978821 931.891907,729.174866 931.875244,717.371521 
	C931.867126,711.613953 931.074768,710.682678 925.560608,711.738098 
	C923.435364,712.144897 921.620544,714.173523 919.294067,715.707397 
	C914.301392,710.525085 907.328430,710.766052 899.440491,711.647644 
M1620.005981,755.042847 
	C1620.004883,742.572815 1620.017212,730.102722 1619.996338,717.632690 
	C1619.987183,712.239990 1618.451050,710.696594 1613.138550,711.693909 
	C1611.298950,712.039307 1609.765869,714.018066 1607.813965,715.456116 
	C1592.577148,708.618530 1584.197998,709.642578 1575.937622,719.695557 
	C1569.449463,727.591736 1569.008789,741.492920 1575.810791,749.787659 
	C1578.728638,753.345886 1582.889282,756.826965 1587.159546,758.125183 
	C1594.570679,760.378235 1602.138428,759.040527 1607.431641,754.385864 
	C1609.709351,756.141174 1611.233643,758.234741 1612.973511,758.432556 
	C1615.341187,758.701782 1618.918457,760.220947 1620.005981,755.042847 
M1314.854858,738.854675 
	C1322.502197,738.803589 1330.149414,738.705383 1337.796753,738.712463 
	C1349.393799,738.723145 1350.232422,737.728638 1347.878296,726.245728 
	C1347.681396,725.285522 1347.330322,724.337524 1346.921265,723.443115 
	C1341.112305,710.739624 1327.617432,708.052185 1314.926147,713.018372 
	C1301.619629,718.225220 1299.735596,733.593140 1304.300659,744.902893 
	C1309.824585,758.587646 1320.936035,760.248169 1332.642212,758.346985 
	C1340.203369,757.119019 1345.826660,750.727905 1346.601685,743.909790 
	C1342.042725,743.240112 1337.821167,742.296143 1333.984985,746.606140 
	C1330.284058,750.764038 1324.852905,751.305420 1319.808960,748.532227 
	C1316.351685,746.631470 1312.639160,744.499695 1314.854858,738.854675 
M1201.963745,747.723450 
	C1196.752075,751.146240 1191.306519,750.805359 1186.503174,747.468262 
	C1184.177979,745.852844 1183.033936,742.537476 1181.355103,739.991821 
	C1181.767822,739.560242 1182.180420,739.128662 1182.593140,738.697083 
	C1192.549438,738.697083 1202.509644,738.537598 1212.460449,738.772095 
	C1216.706055,738.872131 1217.963501,737.200012 1217.907104,733.187561 
	C1217.781006,724.216797 1212.739380,716.112549 1204.681641,712.598633 
	C1196.544678,709.050232 1184.269653,710.980469 1178.380981,716.436279 
	C1172.376831,721.998962 1170.653931,728.820679 1171.040894,736.741638 
	C1171.525024,746.649475 1178.403931,755.837280 1187.920288,758.419312 
	C1198.021973,761.160217 1209.857788,756.581848 1214.877075,747.984741 
	C1216.440186,745.307312 1216.177979,743.610779 1212.595215,743.362610 
	C1208.600708,743.085938 1204.926514,743.404358 1201.963745,747.723450 
M1684.798706,721.365784 
	C1681.486206,727.939636 1679.930176,734.536194 1682.326050,741.990540 
	C1686.323608,754.428345 1695.041992,759.979309 1709.733276,758.629700 
	C1719.408569,757.740967 1728.716675,747.832581 1729.713745,737.360779 
	C1730.760010,726.373047 1724.616943,715.122314 1714.962280,712.112671 
	C1704.479370,708.844727 1692.424316,709.795959 1684.798706,721.365784 
M1630.239136,724.521667 
	C1630.238159,734.170227 1630.384277,743.822083 1630.166016,753.465698 
	C1630.074707,757.498657 1631.669189,758.479675 1635.455078,758.573669 
	C1639.514404,758.674377 1640.715454,757.164551 1640.630493,753.365601 
	C1640.470703,746.216492 1640.442139,739.054626 1640.682373,731.908936 
	C1640.946899,724.043884 1645.604370,719.657104 1652.934326,719.900024 
	C1659.971191,720.133179 1663.324097,724.081726 1663.495850,732.752625 
	C1663.634155,739.736389 1663.492554,746.725464 1663.491089,753.712219 
	C1663.490356,757.279907 1665.239258,758.645752 1668.833862,758.522522 
	C1672.188721,758.407532 1674.489624,757.463379 1674.359619,753.763977 
	C1674.010498,743.821838 1673.942993,733.842224 1672.947632,723.959717 
	C1672.265015,717.183289 1667.381836,713.250977 1660.934570,711.514221 
	C1654.007202,709.648193 1647.436401,710.498596 1641.347534,714.990356 
	C1639.949463,709.598999 1635.783813,710.927307 1632.755249,711.642456 
	C1631.521362,711.933838 1630.773560,715.420349 1630.325195,717.562073 
	C1629.924805,719.474487 1630.240967,721.536926 1630.239136,724.521667 
M1442.919312,734.203430 
	C1442.910156,735.035522 1442.965942,735.874268 1442.881958,736.698730 
	C1441.965332,745.705750 1437.330933,750.352295 1429.792480,749.852051 
	C1423.233521,749.416809 1419.707031,744.563660 1419.633911,735.753845 
	C1419.580078,729.263062 1419.505005,722.769470 1419.637451,716.281189 
	C1419.711792,712.640015 1418.248901,711.265320 1414.593384,711.267578 
	C1411.007568,711.269775 1408.886841,712.023804 1408.985596,716.194153 
	C1409.174683,724.179626 1408.880005,732.178894 1409.161011,740.159241 
	C1409.546875,751.122620 1417.494629,758.888184 1428.507324,758.553589 
	C1433.111328,758.413696 1437.663452,756.564880 1442.565674,755.416504 
	C1443.395264,760.445068 1447.716675,758.739563 1450.740112,758.112183 
	C1451.890259,757.873474 1452.726685,754.268982 1453.003418,752.108459 
	C1453.423096,748.835449 1453.267822,745.483948 1453.287598,742.165344 
	C1453.338989,733.520752 1453.324585,724.875671 1453.394775,716.231323 
	C1453.423950,712.649292 1451.839722,711.233093 1448.195557,711.288696 
	C1444.898193,711.338989 1442.718140,711.766846 1442.857910,715.830750 
	C1443.057617,721.639465 1442.909790,727.460266 1442.919312,734.203430 
M1112.979492,724.546997 
	C1110.431274,711.670349 1095.297852,707.815491 1085.529541,712.515259 
	C1083.257202,713.608459 1081.643188,715.054504 1079.201660,712.109924 
	C1078.141846,710.831970 1074.395020,711.068481 1072.213013,711.738525 
	C1071.136841,712.069031 1070.309204,714.939636 1070.281738,716.675293 
	C1070.094971,728.499512 1070.206177,740.327942 1070.097046,752.153931 
	C1070.061646,755.987000 1070.740112,758.468872 1075.503784,758.552002 
	C1080.600708,758.640930 1079.988281,755.479675 1080.135376,752.277039 
	C1080.507935,744.173828 1080.554810,736.015869 1081.619995,727.997742 
	C1082.377075,722.299927 1086.027466,720.042358 1091.842651,719.886597 
	C1097.570557,719.733154 1100.847046,721.925842 1102.544312,727.509827 
	C1103.304810,730.011475 1103.761719,732.688354 1103.833130,735.300110 
	C1104.006348,741.618713 1103.929688,747.946655 1103.838135,754.269104 
	C1103.790405,757.557068 1105.327637,758.636902 1108.467651,758.479736 
	C1111.482422,758.328918 1114.445068,758.300781 1114.320190,754.207520 
	C1114.026367,744.580933 1113.598755,734.958374 1112.979492,724.546997 
M684.432800,734.387085 
	C684.150940,739.313110 684.845886,744.617737 679.806763,747.860901 
	C671.546509,753.177246 661.985901,748.152710 661.673462,738.210022 
	C661.433105,730.561157 661.538330,722.899109 661.603333,715.243896 
	C661.637146,711.257751 659.074768,711.309265 656.224365,711.315002 
	C653.557983,711.320435 651.111877,711.214905 651.154968,714.970154 
	C651.256287,723.789673 650.839294,732.639648 651.436646,741.422546 
	C652.132080,751.648499 660.215210,758.890198 670.376160,758.542542 
	C674.816956,758.390625 679.206543,756.743225 683.997437,755.691956 
	C685.499268,759.314392 689.369568,759.448120 692.468384,758.037048 
	C693.955688,757.359802 694.616699,753.611633 694.661621,751.235413 
	C694.881592,739.588867 694.686890,727.935181 694.821411,716.286072 
	C694.863098,712.682434 693.663879,711.221252 689.898193,711.285095 
	C686.185120,711.348083 684.299011,712.428284 684.412781,716.442627 
	C684.572998,722.096313 684.424438,727.758667 684.432800,734.387085 
M1158.103394,742.611145 
	C1156.410278,743.802307 1154.787842,745.114014 1153.007202,746.155457 
	C1150.522949,747.608337 1148.041626,749.598206 1145.343140,750.039734 
	C1140.043945,750.906860 1134.586060,747.311401 1132.994873,742.815186 
	C1130.012573,734.387146 1131.921631,725.648132 1137.558105,721.926697 
	C1143.125122,718.250916 1148.878052,719.251221 1153.909912,724.769897 
	C1156.198853,727.280396 1164.291748,728.726379 1164.549927,726.773865 
	C1164.903198,724.100464 1163.958618,720.539490 1162.249268,718.428711 
	C1152.924072,706.913574 1132.022949,708.040588 1124.685181,720.515747 
	C1120.454834,727.708069 1118.894531,735.433655 1122.109253,743.886963 
	C1125.010376,751.516174 1129.856689,757.089905 1137.648193,758.456909 
	C1146.993408,760.096497 1156.507812,759.715027 1162.628540,750.478333 
	C1163.908936,748.546082 1164.267334,746.002930 1165.050659,743.741333 
	C1162.992554,743.360901 1160.934570,742.980469 1158.103394,742.611145 
M1003.625488,719.981262 
	C995.768860,710.010986 980.985901,707.577637 970.459595,714.521912 
	C962.509644,719.766602 959.261108,730.042114 961.749268,742.073059 
	C963.359924,749.861206 970.257507,757.641052 977.298035,758.534485 
	C986.715759,759.729675 996.170471,759.815552 1002.492615,750.851990 
	C1003.861084,748.911865 1004.077942,746.159546 1004.825256,743.781311 
	C1002.280518,743.413391 999.705383,742.649902 997.203735,742.842285 
	C995.929260,742.940430 994.626343,744.620117 993.611633,745.818115 
	C988.231262,752.170044 979.204651,751.719971 974.439453,744.853088 
	C971.213806,740.204712 971.601318,735.132263 972.392395,729.953430 
	C973.197205,724.684998 976.666992,721.587585 981.345764,720.269836 
	C986.120178,718.925171 990.533875,720.236572 993.860107,724.343323 
	C997.001099,728.221313 1000.814270,728.633728 1005.748718,725.657898 
	C1005.182617,724.021790 1004.592285,722.315735 1003.625488,719.981262 
M1399.155273,758.436401 
	C1403.369385,758.746277 1402.915649,755.739807 1403.016357,753.065247 
	C1403.123657,750.216309 1401.625000,749.469116 1399.004639,749.280151 
	C1392.616821,748.819397 1391.919067,748.016235 1391.790161,741.728638 
	C1391.687866,736.736023 1391.735962,731.739929 1391.744263,726.745422 
	C1391.755371,720.055664 1391.770020,719.890991 1398.262817,720.025208 
	C1401.724609,720.096741 1403.609375,719.286865 1403.530640,715.403809 
	C1403.453369,711.603394 1401.319946,710.921509 1398.270996,711.375854 
	C1393.428467,712.097351 1391.420044,710.031738 1391.976929,705.258423 
	C1392.456299,701.148804 1390.297241,700.298889 1386.608154,700.191528 
	C1382.529297,700.072815 1381.203613,701.746155 1381.425781,705.484070 
	C1381.587891,708.210754 1381.551758,710.513672 1377.955078,711.619934 
	C1375.047485,712.514343 1375.233643,719.374268 1378.180542,720.147095 
	C1381.713379,721.073486 1381.413208,723.316162 1381.472900,725.819946 
	C1381.655029,733.460266 1381.710449,741.109314 1382.150146,748.735657 
	C1382.392090,752.933960 1384.909790,755.899292 1389.018311,756.963928 
	C1392.038696,757.746704 1395.204712,757.967285 1399.155273,758.436401 
M952.859192,742.494019 
	C952.867798,728.384705 952.855347,714.275330 952.898621,700.166138 
	C952.910583,696.252747 950.574463,695.650879 947.324585,695.588928 
	C943.802490,695.521790 942.513428,697.272705 942.509766,700.431030 
	C942.489258,718.383057 942.507141,736.335083 942.473267,754.287109 
	C942.466431,757.913696 944.534973,758.634155 947.660461,758.638855 
	C950.696899,758.643372 952.969666,758.258545 952.870911,754.460815 
	C952.775818,750.806458 952.853760,747.147583 952.859192,742.494019 
M852.439392,707.567200 
	C852.432861,704.906616 852.478394,702.244629 852.407837,699.585754 
	C852.296997,695.409485 849.123291,696.303101 846.583801,696.123108 
	C844.010254,695.940796 841.944641,696.179932 841.952209,699.600281 
	C841.993286,718.058899 841.921570,736.517883 842.045654,754.975769 
	C842.053467,756.131836 843.146179,757.938782 844.157166,758.319580 
	C849.366394,760.281372 852.409790,758.035339 852.422791,752.438110 
	C852.456726,737.808472 852.438110,723.178650 852.439392,707.567200 
M641.105774,731.500000 
	C641.110657,721.339417 640.964050,711.175476 641.193787,701.019958 
	C641.287842,696.861328 639.489075,696.088379 635.803345,696.045654 
	C632.110352,696.002808 630.812500,697.148315 630.840149,700.871155 
	C630.971375,718.526184 630.971619,736.183289 630.840759,753.838318 
	C630.812561,757.648315 632.342346,758.688965 635.919373,758.620850 
	C639.276367,758.556885 641.292847,757.988892 641.177246,753.985413 
	C640.970581,746.828918 641.110596,739.662354 641.105774,731.500000 
z"/>
<path fill="#5C438C" opacity="1.000000" stroke="none" 
	d="
M238.002884,607.074158 
	C246.207489,611.883911 253.876053,616.965759 262.053162,621.022522 
	C276.379120,628.129639 291.120148,627.851501 305.214600,620.486572 
	C348.969421,597.623108 384.021301,565.817688 406.022247,520.869934 
	C415.459625,501.589508 418.675659,481.074768 415.298187,460.137726 
	C410.194000,428.496704 387.098358,406.279541 353.933533,407.857361 
	C328.402313,409.072021 310.858459,426.078583 304.259644,450.522156 
	C303.041534,455.034454 303.705597,458.046387 308.779175,460.219086 
	C324.565338,466.979279 335.480927,478.816650 341.179321,494.955231 
	C348.843048,516.659851 345.735840,537.049255 331.187408,554.987549 
	C316.178925,573.493042 296.118530,580.862244 272.914948,576.744507 
	C251.124527,572.877686 235.188858,559.877136 227.235703,539.128723 
	C214.670258,506.347687 228.416580,473.976593 260.478699,459.653320 
	C265.345612,457.479126 267.478302,455.148743 268.445770,449.966492 
	C271.853455,431.713257 278.945801,415.016510 291.453033,400.966675 
	C303.255646,387.708405 317.498016,378.832214 335.041687,374.715210 
	C374.363403,365.487488 413.169739,381.467041 434.476837,413.374359 
	C442.795776,425.831940 447.665253,439.652191 450.246155,454.437836 
	C456.739136,491.635620 446.287781,525.030518 426.988495,556.084900 
	C400.991211,597.917053 365.468781,629.916443 321.622559,652.026794 
	C295.214203,665.343750 268.206482,664.458740 241.611572,650.408447 
	C216.454453,637.117798 194.519012,619.705139 174.737564,599.587280 
	C152.727280,577.202759 134.686508,551.921143 124.148018,522.035706 
	C115.949173,498.785065 113.479187,474.985901 118.635551,450.499542 
	C126.271278,414.239288 147.004150,389.071808 181.610199,376.128876 
	C200.895096,368.916229 220.970490,368.108429 240.821213,374.573212 
	C247.716415,376.818787 254.413269,379.821259 260.943146,383.006104 
	C270.793488,387.810455 274.333405,398.539246 269.550568,407.769897 
	C264.750458,417.033905 254.033890,420.211884 244.287918,414.406952 
	C214.354279,396.577759 173.470459,409.128204 159.187103,440.271057 
	C155.387878,448.554688 152.924194,457.899750 152.006149,466.975861 
	C148.554947,501.095520 162.878647,529.448669 182.912689,555.491882 
	C198.352600,575.562927 216.889328,592.466614 238.002884,607.074158 
M309.247437,511.490662 
	C308.928223,510.545349 308.568420,509.611603 308.295990,508.653015 
	C304.904327,496.719574 292.559845,489.058594 281.752197,490.254639 
	C267.908417,491.786682 257.993774,502.798584 257.823059,515.923035 
	C257.627441,530.958557 270.330658,542.886719 285.602051,542.007141 
	C300.393616,541.155273 311.387787,527.491150 309.247437,511.490662 
z"/>
<path fill="#5B428B" opacity="1.000000" stroke="none" 
	d="
M1540.000000,408.966980 
	C1547.330811,408.963928 1554.163696,409.060822 1560.991333,408.910461 
	C1564.020752,408.843750 1565.203125,410.022705 1565.149292,412.993317 
	C1565.052734,418.322845 1565.129395,423.655487 1565.129272,428.986816 
	C1565.127930,494.295868 1565.125610,559.604919 1565.123291,624.914001 
	C1565.123047,632.002869 1565.122070,631.980835 1558.064087,631.972656 
	C1546.734985,631.959534 1535.406006,631.973877 1524.076904,631.986511 
	C1517.032593,631.994446 1517.044678,632.002625 1517.046509,625.158447 
	C1517.048218,619.160767 1517.048706,613.162842 1516.982422,607.165710 
	C1516.965332,605.618469 1516.694458,604.074036 1516.432129,601.444641 
	C1514.438721,603.183533 1513.266235,604.033203 1512.300781,605.074707 
	C1498.233643,620.249451 1480.638794,629.713745 1460.722534,633.639160 
	C1409.285156,643.777222 1361.850830,620.726562 1339.902954,571.142944 
	C1331.187378,551.453430 1328.032837,530.607178 1329.859863,509.257751 
	C1332.283325,480.937653 1341.911865,455.433929 1362.710327,435.260925 
	C1380.620483,417.889404 1401.976685,407.689056 1427.171021,405.853302 
	C1445.866089,404.491119 1464.059570,405.826111 1481.376709,413.670135 
	C1491.913452,418.442871 1501.472778,424.691467 1509.741211,432.788574 
	C1511.692871,434.699829 1513.078979,437.188507 1514.725342,439.411499 
	C1515.501831,438.976105 1516.278198,438.540741 1517.054688,438.105347 
	C1517.054688,433.046631 1517.051392,427.987885 1517.055298,422.929169 
	C1517.066040,408.955444 1517.067261,408.955811 1531.003540,408.966034 
	C1533.835693,408.968079 1536.667969,408.966309 1540.000000,408.966980 
M1470.201050,591.877502 
	C1479.827881,588.274292 1488.362427,582.988342 1495.771606,575.802612 
	C1519.670898,552.624084 1522.302002,510.399017 1509.045776,483.807190 
	C1487.989868,441.569366 1432.651489,432.323486 1399.053467,465.529053 
	C1388.460083,475.998840 1382.394775,488.899536 1379.796997,503.619202 
	C1376.389404,522.926880 1378.376343,541.472900 1387.543701,558.812744 
	C1403.081177,588.201599 1435.625244,602.462158 1470.201050,591.877502 
z"/>
<path fill="#5C428C" opacity="1.000000" stroke="none" 
	d="
M663.000000,538.079834 
	C633.002747,538.079346 603.505432,538.071106 574.008179,538.084351 
	C567.651123,538.087219 567.884888,538.389587 569.106323,544.731201 
	C571.331848,556.286499 575.671021,566.713440 583.669739,575.393066 
	C599.710388,592.799133 619.810669,598.544312 642.896790,595.943237 
	C661.785461,593.815002 675.889893,584.638916 685.605347,568.362671 
	C686.457825,566.934570 688.647705,565.471863 690.238342,565.447266 
	C704.899963,565.220764 719.566467,565.287109 734.231262,565.346375 
	C735.304382,565.350708 736.375000,565.964050 737.826294,566.411194 
	C734.341553,578.386108 728.238647,588.549377 720.567383,597.844116 
	C707.029724,614.246826 689.903870,625.515625 669.572266,631.265259 
	C650.813171,636.570312 631.481934,637.666321 612.212219,634.330505 
	C569.702759,626.971802 540.255737,603.495117 525.245850,562.629150 
	C518.072876,543.099976 517.262695,522.676270 519.608948,502.558105 
	C523.317322,470.760773 536.965820,443.748474 564.026855,424.953491 
	C580.217712,413.708282 598.222229,407.556244 617.933899,405.868286 
	C636.898499,404.244324 655.548096,405.007507 673.660278,411.219299 
	C706.397522,422.446991 728.280334,444.424988 738.904846,477.526337 
	C744.594666,495.253296 745.632385,513.324280 743.982544,531.730042 
	C743.533691,536.737854 741.699158,538.281372 736.491333,538.212097 
	C712.164612,537.888123 687.831116,538.075317 663.000000,538.079834 
M579.002991,471.545197 
	C576.004761,479.201202 572.976868,486.845764 570.019348,494.517456 
	C568.165649,499.326050 570.539246,500.124268 574.851196,500.103180 
	C602.340271,499.968964 629.830322,500.039703 657.320068,500.046173 
	C668.149414,500.048706 678.979126,500.013031 689.807861,500.097351 
	C692.684387,500.119720 694.914917,499.628906 694.651978,496.117645 
	C693.797546,484.706085 690.124207,474.386017 682.338623,465.817444 
	C667.885803,449.911011 649.600281,444.030151 628.479126,444.709900 
	C607.630798,445.380951 591.481995,454.174866 579.002991,471.545197 
z"/>
<path fill="#5C438C" opacity="1.000000" stroke="none" 
	d="
M955.305298,407.313293 
	C967.659851,406.604736 979.615295,405.267181 991.534485,405.535889 
	C1010.317078,405.959229 1027.925781,411.321838 1043.996948,421.230804 
	C1065.874756,434.719910 1080.357788,453.937347 1088.003174,478.409515 
	C1093.769287,496.866302 1093.642822,515.748169 1091.907715,534.705139 
	C1091.796021,535.927673 1089.611572,537.815308 1088.277222,537.918762 
	C1083.307739,538.303772 1078.290649,538.073242 1073.291382,538.073059 
	C1023.299011,538.070984 973.306580,538.069397 923.314209,538.065918 
	C917.179504,538.065491 916.478699,538.842163 917.738159,545.123108 
	C923.011292,571.419556 938.992065,588.326843 964.655396,594.550293 
	C982.228088,598.811707 1000.431274,598.188843 1016.090942,587.344666 
	C1022.596924,582.839478 1027.822388,576.228882 1032.847900,569.949524 
	C1035.400391,566.760071 1037.532715,565.141052 1041.705078,565.223938 
	C1054.697632,565.482300 1067.698975,565.284180 1080.696899,565.286621 
	C1086.473145,565.287659 1087.000488,566.290222 1084.677734,571.794922 
	C1071.877197,602.131226 1049.313965,621.737427 1018.103821,631.174072 
	C999.550781,636.783813 980.358093,637.579163 961.243774,634.331726 
	C919.167175,627.183105 889.405518,604.453247 874.516724,563.864441 
	C866.001038,540.649658 865.200439,516.814758 869.948669,492.605042 
	C875.224548,465.705231 887.987854,443.490967 909.987488,426.891937 
	C923.363037,416.799866 938.493652,410.608765 955.305298,407.313293 
M980.500000,444.803986 
	C971.525208,444.247406 962.847473,445.714996 954.642334,449.286407 
	C934.699524,457.966858 922.943298,473.265198 918.351074,494.427490 
	C917.443726,498.608856 917.990112,500.149933 922.599060,500.135620 
	C961.261719,500.015472 999.925110,500.026764 1038.587891,500.126282 
	C1042.073608,500.135254 1043.384888,499.069550 1043.186646,495.559357 
	C1042.521851,483.782013 1038.208496,473.498688 1030.228882,464.952759 
	C1017.099792,450.891937 1000.638550,444.502930 980.500000,444.803986 
z"/>
<path fill="#5B428B" opacity="1.000000" stroke="none" 
	d="
M1140.785522,408.968384 
	C1145.572510,408.478058 1147.897461,409.714813 1149.524414,414.487946 
	C1158.562500,441.006958 1168.134277,467.344421 1177.560059,493.730896 
	C1185.877563,517.014893 1194.245361,540.281006 1202.586182,563.556702 
	C1205.041138,570.407654 1207.458618,577.272278 1209.947144,584.111023 
	C1210.361084,585.248779 1211.052002,586.285767 1212.381592,588.844849 
	C1215.194214,581.150330 1217.526489,574.914185 1219.757935,568.642212 
	C1234.087158,528.364136 1248.388306,488.076202 1262.711792,447.796173 
	C1266.826416,436.225037 1271.008545,424.677948 1275.104980,413.100525 
	C1276.105713,410.272064 1277.667603,408.848694 1280.950928,408.887665 
	C1294.610474,409.049683 1308.274414,409.067993 1321.933838,408.899323 
	C1326.268921,408.845764 1326.794678,410.622223 1325.443726,414.084656 
	C1317.838257,433.577484 1310.262817,453.082001 1302.643799,472.569489 
	C1296.129272,489.232056 1289.537109,505.864288 1283.037231,522.532593 
	C1273.285034,547.541321 1263.601929,572.576904 1253.851929,597.586426 
	C1249.994263,607.481506 1245.891357,617.283752 1242.200562,627.239563 
	C1240.895020,630.761108 1239.044800,632.114319 1235.257324,632.067993 
	C1219.598633,631.876404 1203.935547,631.859863 1188.276855,632.029785 
	C1184.440674,632.071411 1182.642944,630.538635 1181.313110,627.117615 
	C1167.251953,590.946045 1153.040894,554.832825 1138.931152,518.679993 
	C1125.418579,484.057434 1111.968872,449.410431 1098.514648,414.765167 
	C1096.784546,410.310150 1097.704956,408.955597 1102.331177,408.952820 
	C1114.992798,408.945251 1127.654419,408.963196 1140.785522,408.968384 
z"/>
<path fill="#5C448D" opacity="1.000000" stroke="none" 
	d="
M781.880615,538.000000 
	C781.878479,471.535858 781.876587,405.571747 781.874268,339.607605 
	C781.873962,332.141907 781.872925,332.139923 789.313660,332.141205 
	C800.973877,332.143188 812.636047,332.270386 824.293213,332.084595 
	C828.289856,332.020905 829.883301,333.132660 829.878845,337.431183 
	C829.778992,433.878601 829.782227,530.326172 829.867126,626.773682 
	C829.870544,630.681458 828.653137,632.076538 824.719299,632.024658 
	C812.228394,631.859924 799.732117,631.861084 787.241638,632.047302 
	C783.063293,632.109619 781.786499,630.535034 781.804810,626.451965 
	C781.935730,597.135071 781.878357,567.817444 781.880615,538.000000 
z"/>
<path fill="#5C428C" opacity="1.000000" stroke="none" 
	d="
M1664.026123,602.000000 
	C1664.030273,610.663391 1663.913330,618.829468 1664.093628,626.988953 
	C1664.174072,630.627869 1662.908569,632.064697 1659.186646,632.025757 
	C1646.526611,631.893433 1633.858398,631.768005 1621.205688,632.103882 
	C1616.315430,632.233704 1615.942017,630.005432 1615.949097,626.102661 
	C1616.041260,575.623108 1616.012451,525.143311 1616.011108,474.663605 
	C1616.010620,454.838257 1616.131348,435.011383 1615.901978,415.188629 
	C1615.848511,410.558258 1616.888672,408.701111 1621.926880,408.848114 
	C1633.911865,409.197754 1645.918945,409.166260 1657.906616,408.867554 
	C1662.837891,408.744690 1664.313110,410.545258 1664.120239,415.246399 
	C1663.823120,422.487854 1664.041992,429.750427 1664.041992,437.004059 
	C1664.531250,437.187256 1665.020508,437.370453 1665.509766,437.553650 
	C1666.603271,436.316833 1667.756958,435.127625 1668.781250,433.835938 
	C1682.232056,416.875763 1699.740967,407.502991 1721.322021,405.919830 
	C1732.132202,405.126831 1732.132690,405.262299 1732.125122,416.227051 
	C1732.117920,426.722809 1731.991333,437.221558 1732.209961,447.712860 
	C1732.294434,451.769989 1731.140625,453.352051 1726.839722,453.134125 
	C1715.449585,452.557007 1704.223755,453.735504 1693.417847,457.674591 
	C1678.899658,462.966980 1669.954590,473.476288 1667.092651,488.360046 
	C1665.129395,498.570221 1664.302856,509.119812 1664.154297,519.534607 
	C1663.764771,546.851501 1664.024902,574.177551 1664.026123,602.000000 
z"/>
<path fill="#6A5591" opacity="1.000000" stroke="none" 
	d="
M1553.212524,739.024658 
	C1553.195801,735.863831 1553.258423,733.193970 1553.140869,730.532166 
	C1552.824951,723.385010 1548.866455,719.789185 1541.531372,719.884949 
	C1535.192993,719.967712 1530.916748,724.381470 1530.852051,731.075012 
	C1530.779541,738.573547 1530.601685,746.082092 1530.899292,753.569153 
	C1531.087280,758.294189 1528.539185,758.373657 1524.979858,758.549072 
	C1520.960449,758.747131 1520.202148,756.929016 1520.262939,753.511780 
	C1520.393677,746.181824 1520.373779,738.846313 1520.252563,731.515686 
	C1520.137695,724.562317 1515.800903,720.083008 1509.253052,719.879211 
	C1502.389282,719.665649 1498.067383,723.413269 1497.677856,730.746033 
	C1497.280640,738.223694 1497.486938,745.735291 1497.497314,753.231934 
	C1497.502441,756.948792 1495.986206,758.549316 1492.051636,758.548584 
	C1488.332031,758.547913 1486.997070,757.220825 1487.039795,753.591675 
	C1487.159668,743.427490 1487.087036,733.260986 1487.074463,723.095398 
	C1487.072144,721.264282 1486.790527,719.409363 1487.003418,717.608643 
	C1487.238647,715.620483 1487.544067,712.214478 1488.434204,712.001831 
	C1490.940918,711.402832 1493.775391,712.032227 1496.456665,712.368408 
	C1497.746338,712.530029 1499.352905,713.839478 1500.185913,713.409241 
	C1510.469116,708.098694 1519.430298,709.857971 1527.671509,718.411377 
	C1532.808838,712.315125 1539.366821,710.192993 1547.210815,711.078247 
	C1555.917358,712.060730 1562.756714,717.852356 1563.341187,726.563416 
	C1563.964600,735.856079 1563.641113,745.213318 1563.693115,754.542664 
	C1563.714722,758.427551 1561.009521,758.460754 1558.153076,758.477234 
	C1555.041748,758.495178 1553.005615,757.755981 1553.147949,754.016174 
	C1553.331665,749.190125 1553.203491,744.352112 1553.212524,739.024658 
z"/>
<path fill="#685491" opacity="1.000000" stroke="none" 
	d="
M1283.740967,697.915039 
	C1290.787598,693.912903 1293.961914,695.773071 1293.938477,703.265381 
	C1293.889404,718.927429 1294.021606,734.590881 1293.837769,750.250977 
	C1293.805786,752.978943 1293.375732,757.283997 1291.756958,758.084106 
	C1288.328613,759.778870 1284.245972,758.975952 1282.417725,754.605347 
	C1265.678101,760.951599 1257.848145,759.795776 1250.016968,749.978821 
	C1244.360352,742.887756 1243.662964,728.482544 1249.208862,720.795776 
	C1258.228394,708.294434 1269.926880,709.032227 1283.561890,715.901245 
	C1283.561890,709.388611 1283.561890,703.841492 1283.740967,697.915039 
M1277.943237,722.321228 
	C1275.983154,721.506592 1274.082886,720.222229 1272.052002,719.963867 
	C1265.501343,719.130249 1259.343872,722.800720 1257.232910,728.392151 
	C1254.741943,734.989929 1256.900635,743.897888 1262.022705,747.468689 
	C1266.623779,750.676392 1271.476562,751.207397 1276.555542,748.409485 
	C1285.282593,743.602051 1286.316162,730.667969 1277.943237,722.321228 
z"/>
<path fill="#675290" opacity="1.000000" stroke="none" 
	d="
M706.414185,748.474365 
	C698.432068,735.498108 703.434753,718.423218 714.761536,713.240051 
	C721.481262,710.165100 728.286133,710.295166 735.017639,713.296204 
	C736.627563,714.013977 738.146606,714.935547 740.539856,716.204895 
	C740.539856,710.606873 740.694702,705.679932 740.493591,700.767517 
	C740.315002,696.405579 742.804260,696.148560 746.217224,696.026611 
	C749.968445,695.892578 751.159851,697.255981 751.132874,700.906921 
	C751.006226,718.050781 751.118286,735.196289 751.013062,752.340393 
	C750.998657,754.689331 752.368835,758.251099 748.074341,758.472229 
	C744.549988,758.653809 740.078735,759.890869 740.389343,752.492920 
	C734.071045,758.669739 727.192688,759.842896 720.038025,758.389709 
	C714.337341,757.231995 709.741943,753.872009 706.414185,748.474365 
M740.814270,735.413635 
	C741.970276,726.670349 734.762695,720.320007 729.360901,719.854797 
	C720.848511,719.121826 715.533142,722.948669 713.476746,731.998352 
	C712.159607,737.794861 714.095093,742.871887 718.368591,746.827637 
	C722.200989,750.375122 727.037720,751.410461 731.791504,749.348755 
	C737.284363,746.966431 740.884460,742.750732 740.814270,735.413635 
z"/>
<path fill="#685491" opacity="1.000000" stroke="none" 
	d="
M611.891357,711.725464 
	C620.145813,711.509277 620.422424,711.759033 620.437500,719.628113 
	C620.457520,730.117249 620.602234,740.610657 620.321716,751.092285 
	C620.255005,753.584717 619.331055,757.522095 617.717529,758.194519 
	C614.520569,759.527100 610.323486,759.669678 608.981934,754.852722 
	C604.661621,756.225525 600.728516,758.087280 596.613586,758.673828 
	C581.177307,760.874268 570.811707,748.241394 571.379700,733.196350 
	C572.039368,715.727478 589.487061,705.131592 605.361450,714.250305 
	C609.271912,716.496521 609.773193,713.332947 611.891357,711.725464 
M596.413025,719.826294 
	C587.897034,720.085327 582.222229,725.883789 582.144226,734.405945 
	C582.065918,742.961609 587.524170,749.666260 594.947754,750.133362 
	C602.799927,750.627319 609.337585,744.737793 609.909790,736.072144 
	C610.329712,729.711914 607.460144,721.096619 596.413025,719.826294 
z"/>
<path fill="#685390" opacity="1.000000" stroke="none" 
	d="
M816.975342,714.381836 
	C818.563171,714.426819 820.572815,714.684753 820.912964,714.049194 
	C822.883789,710.366333 826.305115,711.021484 828.740051,712.093506 
	C830.281128,712.771729 831.488464,715.917053 831.538574,717.987549 
	C831.804749,728.978821 831.734253,739.981018 831.599487,750.977234 
	C831.565796,753.728088 832.963196,757.534790 828.700806,758.453491 
	C825.085205,759.232849 821.297119,759.323608 820.176514,754.517883 
	C801.471619,761.085571 793.521179,759.684998 786.440918,748.780762 
	C780.245728,739.239563 781.400574,725.497681 789.077637,717.406799 
	C795.995361,710.116211 806.964844,708.832092 816.975342,714.381836 
M797.917480,746.677551 
	C802.202881,750.324219 807.057922,751.385315 812.227051,749.134399 
	C817.980103,746.629211 820.465881,741.680237 820.989807,735.675232 
	C821.571228,729.009705 816.770142,721.715332 810.904419,720.124695 
	C803.990723,718.250000 796.849915,721.585815 794.281982,728.501526 
	C791.944397,734.797119 792.623047,740.916809 797.917480,746.677551 
z"/>
<path fill="#6B5792" opacity="1.000000" stroke="none" 
	d="
M565.003845,744.112183 
	C562.283508,752.824707 556.434875,758.150269 548.884644,758.669434 
	C539.214783,759.334351 530.137573,758.332764 525.009521,748.403625 
	C523.846680,746.152161 521.556213,742.913879 525.030273,741.653137 
	C528.040588,740.560608 532.765930,739.272461 534.866394,743.479919 
	C537.733826,749.223938 542.257385,750.096924 547.760864,749.364685 
	C551.749207,748.834045 554.701050,746.193420 554.546387,742.589783 
	C554.438354,740.072266 552.035095,736.592163 549.717163,735.450989 
	C544.857361,733.058411 539.328369,732.064453 534.164429,730.240479 
	C527.150635,727.763123 523.348694,722.529358 523.332825,715.810486 
	C523.316528,708.889221 527.358521,703.064026 534.023315,700.511902 
	C542.501587,697.265381 550.663269,697.765320 558.273010,702.931641 
	C559.736145,703.925049 561.472046,705.303345 561.914673,706.840332 
	C562.700745,709.570190 562.593384,712.557312 562.859741,715.436829 
	C559.258362,715.270996 555.458130,717.085876 552.480957,712.942505 
	C548.305664,707.131653 543.119507,706.127808 537.793640,709.326538 
	C532.652466,712.414246 532.378845,717.997620 537.739624,720.631409 
	C543.206665,723.317383 549.179382,724.968506 554.914185,727.116760 
	C562.546143,729.975708 566.023315,735.661255 565.003845,744.112183 
z"/>
<path fill="#675290" opacity="1.000000" stroke="none" 
	d="
M1046.181885,715.031982 
	C1047.369507,715.131958 1048.955444,715.155579 1049.015991,714.863464 
	C1050.039307,709.917419 1053.784058,711.623047 1056.636597,711.841980 
	C1060.378418,712.129150 1059.557983,715.259338 1059.567749,717.629089 
	C1059.614502,728.957703 1059.696777,740.288452 1059.505737,751.614014 
	C1059.462646,754.170776 1061.275513,758.084961 1056.344116,758.585083 
	C1052.385620,758.986511 1048.453125,759.252319 1048.773560,753.276245 
	C1035.278809,761.421936 1024.422363,760.628296 1016.334045,751.165649 
	C1009.056030,742.650879 1008.779541,727.470886 1015.751648,719.187805 
	C1023.437561,710.056702 1035.181885,708.349182 1046.181885,715.031982 
M1047.342285,742.523499 
	C1047.923340,739.311951 1049.132080,736.067993 1048.968506,732.894836 
	C1048.461548,723.067383 1037.774780,716.563904 1029.643921,720.809509 
	C1023.930481,723.792847 1020.578796,729.756592 1021.146179,735.929871 
	C1021.748535,742.484497 1025.970703,748.273865 1031.649902,749.709412 
	C1038.283936,751.386292 1043.278809,748.655457 1047.342285,742.523499 
z"/>
<path fill="#685390" opacity="1.000000" stroke="none" 
	d="
M899.849121,711.538818 
	C907.328430,710.766052 914.301392,710.525085 919.294067,715.707397 
	C921.620544,714.173523 923.435364,712.144897 925.560608,711.738098 
	C931.074768,710.682678 931.867126,711.613953 931.875244,717.371521 
	C931.891907,729.174866 931.940735,740.978821 931.815552,752.780884 
	C931.792419,754.964172 933.101624,758.406006 929.107239,758.534424 
	C925.777344,758.641602 921.268982,760.285156 920.905579,753.683899 
	C912.609314,759.264465 903.897766,761.438477 895.495667,756.326538 
	C891.242859,753.739014 887.290039,749.267334 885.229431,744.727173 
	C878.903198,730.788940 886.973633,714.260925 899.849121,711.538818 
M896.294250,726.031982 
	C895.758606,727.400696 895.170349,728.751465 894.696228,730.141174 
	C892.458496,736.699646 894.439087,742.320496 899.178223,746.842346 
	C903.084961,750.569885 907.957397,751.364258 912.997559,749.046387 
	C919.324646,746.136780 921.413269,741.048279 921.530762,734.185730 
	C921.649353,727.257324 916.884033,722.152588 912.186462,720.291199 
	C906.927979,718.207520 901.293274,720.228577 896.294250,726.031982 
z"/>
<path fill="#685390" opacity="1.000000" stroke="none" 
	d="
M1619.970459,755.487854 
	C1618.918457,760.220947 1615.341187,758.701782 1612.973511,758.432556 
	C1611.233643,758.234741 1609.709351,756.141174 1607.431641,754.385864 
	C1602.138428,759.040527 1594.570679,760.378235 1587.159546,758.125183 
	C1582.889282,756.826965 1578.728638,753.345886 1575.810791,749.787659 
	C1569.008789,741.492920 1569.449463,727.591736 1575.937622,719.695557 
	C1584.197998,709.642578 1592.577148,708.618530 1607.813965,715.456116 
	C1609.765869,714.018066 1611.298950,712.039307 1613.138550,711.693909 
	C1618.451050,710.696594 1619.987183,712.239990 1619.996338,717.632690 
	C1620.017212,730.102722 1620.004883,742.572815 1619.970459,755.487854 
M1583.358398,727.212769 
	C1582.973511,728.131165 1582.491821,729.021729 1582.218506,729.972290 
	C1579.558716,739.222229 1585.501709,749.424072 1593.905884,750.084534 
	C1601.507324,750.681824 1607.021851,746.440796 1609.335449,738.218323 
	C1610.994141,732.323486 1607.110474,723.973816 1601.348267,721.046143 
	C1594.989990,717.815613 1588.732666,719.748108 1583.358398,727.212769 
z"/>
<path fill="#6B5693" opacity="1.000000" stroke="none" 
	d="
M1314.470215,739.108521 
	C1312.639160,744.499695 1316.351685,746.631470 1319.808960,748.532227 
	C1324.852905,751.305420 1330.284058,750.764038 1333.984985,746.606140 
	C1337.821167,742.296143 1342.042725,743.240112 1346.601685,743.909790 
	C1345.826660,750.727905 1340.203369,757.119019 1332.642212,758.346985 
	C1320.936035,760.248169 1309.824585,758.587646 1304.300659,744.902893 
	C1299.735596,733.593140 1301.619629,718.225220 1314.926147,713.018372 
	C1327.617432,708.052185 1341.112305,710.739624 1346.921265,723.443115 
	C1347.330322,724.337524 1347.681396,725.285522 1347.878296,726.245728 
	C1350.232422,737.728638 1349.393799,738.723145 1337.796753,738.712463 
	C1330.149414,738.705383 1322.502197,738.803589 1314.470215,739.108521 
M1332.327759,730.209595 
	C1337.084595,729.993286 1338.666870,728.393372 1336.777954,725.384521 
	C1333.951660,720.882263 1329.657349,719.347351 1324.345093,719.695435 
	C1319.708862,719.999146 1316.458008,722.052734 1314.388550,726.019226 
	C1313.088989,728.510193 1313.666016,730.215027 1316.886963,730.205139 
	C1321.713013,730.190247 1326.539062,730.205627 1332.327759,730.209595 
z"/>
<path fill="#6B5693" opacity="1.000000" stroke="none" 
	d="
M1202.270264,747.489441 
	C1204.926514,743.404358 1208.600708,743.085938 1212.595215,743.362610 
	C1216.177979,743.610779 1216.440186,745.307312 1214.877075,747.984741 
	C1209.857788,756.581848 1198.021973,761.160217 1187.920288,758.419312 
	C1178.403931,755.837280 1171.525024,746.649475 1171.040894,736.741638 
	C1170.653931,728.820679 1172.376831,721.998962 1178.380981,716.436279 
	C1184.269653,710.980469 1196.544678,709.050232 1204.681641,712.598633 
	C1212.739380,716.112549 1217.781006,724.216797 1217.907104,733.187561 
	C1217.963501,737.200012 1216.706055,738.872131 1212.460449,738.772095 
	C1202.509644,738.537598 1192.549438,738.697083 1182.593140,738.697083 
	C1182.180420,739.128662 1181.767822,739.560242 1181.355103,739.991821 
	C1183.033936,742.537476 1184.177979,745.852844 1186.503174,747.468262 
	C1191.306519,750.805359 1196.752075,751.146240 1202.270264,747.489441 
M1183.407227,725.144531 
	C1182.979980,726.579102 1182.552734,728.013733 1181.944214,730.056396 
	C1190.492676,730.056396 1198.141846,730.056396 1207.313843,730.056396 
	C1205.643311,726.894653 1204.967529,724.484741 1203.432739,722.914551 
	C1197.967285,717.323364 1190.199829,718.083069 1183.407227,725.144531 
z"/>
<path fill="#695491" opacity="1.000000" stroke="none" 
	d="
M1684.984863,721.049561 
	C1692.424316,709.795959 1704.479370,708.844727 1714.962280,712.112671 
	C1724.616943,715.122314 1730.760010,726.373047 1729.713745,737.360779 
	C1728.716675,747.832581 1719.408569,757.740967 1709.733276,758.629700 
	C1695.041992,759.979309 1686.323608,754.428345 1682.326050,741.990540 
	C1679.930176,734.536194 1681.486206,727.939636 1684.984863,721.049561 
M1712.903076,722.354614 
	C1712.161865,721.977844 1711.432495,721.575195 1710.677490,721.228333 
	C1705.382812,718.796082 1700.025757,719.632874 1695.940552,723.516846 
	C1691.405151,727.828796 1689.843262,734.830139 1692.160400,740.461609 
	C1694.944580,747.228455 1698.664795,750.121704 1704.566772,750.110596 
	C1710.608398,750.099243 1715.503784,746.815063 1717.753296,741.264221 
	C1720.660034,734.091431 1719.401733,728.637512 1712.903076,722.354614 
z"/>
<path fill="#6B5792" opacity="1.000000" stroke="none" 
	d="
M1630.240112,724.027466 
	C1630.240967,721.536926 1629.924805,719.474487 1630.325195,717.562073 
	C1630.773560,715.420349 1631.521362,711.933838 1632.755249,711.642456 
	C1635.783813,710.927307 1639.949463,709.598999 1641.347534,714.990356 
	C1647.436401,710.498596 1654.007202,709.648193 1660.934570,711.514221 
	C1667.381836,713.250977 1672.265015,717.183289 1672.947632,723.959717 
	C1673.942993,733.842224 1674.010498,743.821838 1674.359619,753.763977 
	C1674.489624,757.463379 1672.188721,758.407532 1668.833862,758.522522 
	C1665.239258,758.645752 1663.490356,757.279907 1663.491089,753.712219 
	C1663.492554,746.725464 1663.634155,739.736389 1663.495850,732.752625 
	C1663.324097,724.081726 1659.971191,720.133179 1652.934326,719.900024 
	C1645.604370,719.657104 1640.946899,724.043884 1640.682373,731.908936 
	C1640.442139,739.054626 1640.470703,746.216492 1640.630493,753.365601 
	C1640.715454,757.164551 1639.514404,758.674377 1635.455078,758.573669 
	C1631.669189,758.479675 1630.074707,757.498657 1630.166016,753.465698 
	C1630.384277,743.822083 1630.238159,734.170227 1630.240112,724.027466 
z"/>
<path fill="#685390" opacity="1.000000" stroke="none" 
	d="
M1442.914795,733.739624 
	C1442.909790,727.460266 1443.057617,721.639465 1442.857910,715.830750 
	C1442.718140,711.766846 1444.898193,711.338989 1448.195557,711.288696 
	C1451.839722,711.233093 1453.423950,712.649292 1453.394775,716.231323 
	C1453.324585,724.875671 1453.338989,733.520752 1453.287598,742.165344 
	C1453.267822,745.483948 1453.423096,748.835449 1453.003418,752.108459 
	C1452.726685,754.268982 1451.890259,757.873474 1450.740112,758.112183 
	C1447.716675,758.739563 1443.395264,760.445068 1442.565674,755.416504 
	C1437.663452,756.564880 1433.111328,758.413696 1428.507324,758.553589 
	C1417.494629,758.888184 1409.546875,751.122620 1409.161011,740.159241 
	C1408.880005,732.178894 1409.174683,724.179626 1408.985596,716.194153 
	C1408.886841,712.023804 1411.007568,711.269775 1414.593384,711.267578 
	C1418.248901,711.265320 1419.711792,712.640015 1419.637451,716.281189 
	C1419.505005,722.769470 1419.580078,729.263062 1419.633911,735.753845 
	C1419.707031,744.563660 1423.233521,749.416809 1429.792480,749.852051 
	C1437.330933,750.352295 1441.965332,745.705750 1442.881958,736.698730 
	C1442.965942,735.874268 1442.910156,735.035522 1442.914795,733.739624 
z"/>
<path fill="#6B5693" opacity="1.000000" stroke="none" 
	d="
M1113.102417,724.940613 
	C1113.598755,734.958374 1114.026367,744.580933 1114.320190,754.207520 
	C1114.445068,758.300781 1111.482422,758.328918 1108.467651,758.479736 
	C1105.327637,758.636902 1103.790405,757.557068 1103.838135,754.269104 
	C1103.929688,747.946655 1104.006348,741.618713 1103.833130,735.300110 
	C1103.761719,732.688354 1103.304810,730.011475 1102.544312,727.509827 
	C1100.847046,721.925842 1097.570557,719.733154 1091.842651,719.886597 
	C1086.027466,720.042358 1082.377075,722.299927 1081.619995,727.997742 
	C1080.554810,736.015869 1080.507935,744.173828 1080.135376,752.277039 
	C1079.988281,755.479675 1080.600708,758.640930 1075.503784,758.552002 
	C1070.740112,758.468872 1070.061646,755.987000 1070.097046,752.153931 
	C1070.206177,740.327942 1070.094971,728.499512 1070.281738,716.675293 
	C1070.309204,714.939636 1071.136841,712.069031 1072.213013,711.738525 
	C1074.395020,711.068481 1078.141846,710.831970 1079.201660,712.109924 
	C1081.643188,715.054504 1083.257202,713.608459 1085.529541,712.515259 
	C1095.297852,707.815491 1110.431274,711.670349 1113.102417,724.940613 
z"/>
<path fill="#675290" opacity="1.000000" stroke="none" 
	d="
M684.420349,733.902222 
	C684.424438,727.758667 684.572998,722.096313 684.412781,716.442627 
	C684.299011,712.428284 686.185120,711.348083 689.898193,711.285095 
	C693.663879,711.221252 694.863098,712.682434 694.821411,716.286072 
	C694.686890,727.935181 694.881592,739.588867 694.661621,751.235413 
	C694.616699,753.611633 693.955688,757.359802 692.468384,758.037048 
	C689.369568,759.448120 685.499268,759.314392 683.997437,755.691956 
	C679.206543,756.743225 674.816956,758.390625 670.376160,758.542542 
	C660.215210,758.890198 652.132080,751.648499 651.436646,741.422546 
	C650.839294,732.639648 651.256287,723.789673 651.154968,714.970154 
	C651.111877,711.214905 653.557983,711.320435 656.224365,711.315002 
	C659.074768,711.309265 661.637146,711.257751 661.603333,715.243896 
	C661.538330,722.899109 661.433105,730.561157 661.673462,738.210022 
	C661.985901,748.152710 671.546509,753.177246 679.806763,747.860901 
	C684.845886,744.617737 684.150940,739.313110 684.420349,733.902222 
z"/>
<path fill="#6B5893" opacity="1.000000" stroke="none" 
	d="
M1158.489990,742.605591 
	C1160.934570,742.980469 1162.992554,743.360901 1165.050659,743.741333 
	C1164.267334,746.002930 1163.908936,748.546082 1162.628540,750.478333 
	C1156.507812,759.715027 1146.993408,760.096497 1137.648193,758.456909 
	C1129.856689,757.089905 1125.010376,751.516174 1122.109253,743.886963 
	C1118.894531,735.433655 1120.454834,727.708069 1124.685181,720.515747 
	C1132.022949,708.040588 1152.924072,706.913574 1162.249268,718.428711 
	C1163.958618,720.539490 1164.903198,724.100464 1164.549927,726.773865 
	C1164.291748,728.726379 1156.198853,727.280396 1153.909912,724.769897 
	C1148.878052,719.251221 1143.125122,718.250916 1137.558105,721.926697 
	C1131.921631,725.648132 1130.012573,734.387146 1132.994873,742.815186 
	C1134.586060,747.311401 1140.043945,750.906860 1145.343140,750.039734 
	C1148.041626,749.598206 1150.522949,747.608337 1153.007202,746.155457 
	C1154.787842,745.114014 1156.410278,743.802307 1158.489990,742.605591 
z"/>
<path fill="#6B5893" opacity="1.000000" stroke="none" 
	d="
M1003.813721,720.295532 
	C1004.592285,722.315735 1005.182617,724.021790 1005.748718,725.657898 
	C1000.814270,728.633728 997.001099,728.221313 993.860107,724.343323 
	C990.533875,720.236572 986.120178,718.925171 981.345764,720.269836 
	C976.666992,721.587585 973.197205,724.684998 972.392395,729.953430 
	C971.601318,735.132263 971.213806,740.204712 974.439453,744.853088 
	C979.204651,751.719971 988.231262,752.170044 993.611633,745.818115 
	C994.626343,744.620117 995.929260,742.940430 997.203735,742.842285 
	C999.705383,742.649902 1002.280518,743.413391 1004.825195,743.781311 
	C1004.077942,746.159546 1003.861084,748.911865 1002.492615,750.851990 
	C996.170471,759.815552 986.715759,759.729675 977.298035,758.534485 
	C970.257507,757.641052 963.359924,749.861206 961.749268,742.073059 
	C959.261108,730.042114 962.509644,719.766602 970.459595,714.521912 
	C980.985901,707.577637 995.768860,710.010986 1003.813721,720.295532 
z"/>
<path fill="#685390" opacity="1.000000" stroke="none" 
	d="
M1398.730591,758.437378 
	C1395.204712,757.967285 1392.038696,757.746704 1389.018311,756.963928 
	C1384.909790,755.899292 1382.392090,752.933960 1382.150146,748.735657 
	C1381.710449,741.109314 1381.655029,733.460266 1381.472900,725.819946 
	C1381.413208,723.316162 1381.713379,721.073486 1378.180542,720.147095 
	C1375.233643,719.374268 1375.047485,712.514343 1377.955078,711.619934 
	C1381.551758,710.513672 1381.587891,708.210754 1381.425781,705.484070 
	C1381.203613,701.746155 1382.529297,700.072815 1386.608154,700.191528 
	C1390.297241,700.298889 1392.456299,701.148804 1391.976929,705.258423 
	C1391.420044,710.031738 1393.428467,712.097351 1398.270996,711.375854 
	C1401.319946,710.921509 1403.453369,711.603394 1403.530640,715.403809 
	C1403.609375,719.286865 1401.724609,720.096741 1398.262817,720.025208 
	C1391.770020,719.890991 1391.755371,720.055664 1391.744263,726.745422 
	C1391.735962,731.739929 1391.687866,736.736023 1391.790161,741.728638 
	C1391.919067,748.016235 1392.616821,748.819397 1399.004639,749.280151 
	C1401.625000,749.469116 1403.123657,750.216309 1403.016357,753.065247 
	C1402.915649,755.739807 1403.369385,758.746277 1398.730591,758.437378 
z"/>
<path fill="#6B5893" opacity="1.000000" stroke="none" 
	d="
M952.857422,742.992371 
	C952.853760,747.147583 952.775818,750.806458 952.870911,754.460815 
	C952.969666,758.258545 950.696899,758.643372 947.660461,758.638855 
	C944.534973,758.634155 942.466431,757.913696 942.473267,754.287109 
	C942.507141,736.335083 942.489258,718.383057 942.509766,700.431030 
	C942.513428,697.272705 943.802490,695.521790 947.324585,695.588928 
	C950.574463,695.650879 952.910583,696.252747 952.898621,700.166138 
	C952.855347,714.275330 952.867798,728.384705 952.857422,742.992371 
z"/>
<path fill="#65518E" opacity="1.000000" stroke="none" 
	d="
M852.439941,708.058105 
	C852.438110,723.178650 852.456726,737.808472 852.422791,752.438110 
	C852.409790,758.035339 849.366394,760.281372 844.157166,758.319580 
	C843.146179,757.938782 842.053467,756.131836 842.045654,754.975769 
	C841.921570,736.517883 841.993286,718.058899 841.952209,699.600281 
	C841.944641,696.179932 844.010254,695.940796 846.583801,696.123108 
	C849.123291,696.303101 852.296997,695.409485 852.407837,699.585754 
	C852.478394,702.244629 852.432861,704.906616 852.439941,708.058105 
z"/>
<path fill="#65518E" opacity="1.000000" stroke="none" 
	d="
M641.105713,732.000000 
	C641.110596,739.662354 640.970581,746.828918 641.177246,753.985413 
	C641.292847,757.988892 639.276367,758.556885 635.919373,758.620850 
	C632.342346,758.688965 630.812561,757.648315 630.840759,753.838318 
	C630.971619,736.183289 630.971375,718.526184 630.840149,700.871155 
	C630.812500,697.148315 632.110352,696.002808 635.803345,696.045654 
	C639.489075,696.088379 641.287842,696.861328 641.193787,701.019958 
	C640.964050,711.175476 641.110657,721.339417 641.105713,732.000000 
z"/>
<path fill="#F7F6F9" opacity="1.000000" stroke="none" 
	d="
M309.384949,511.884186 
	C311.387787,527.491150 300.393616,541.155273 285.602051,542.007141 
	C270.330658,542.886719 257.627441,530.958557 257.823059,515.923035 
	C257.993774,502.798584 267.908417,491.786682 281.752197,490.254639 
	C292.559845,489.058594 304.904327,496.719574 308.295990,508.653015 
	C308.568420,509.611603 308.928223,510.545349 309.384949,511.884186 
z"/>
<path fill="#FCFCFD" opacity="1.000000" stroke="none" 
	d="
M1469.838623,592.037231 
	C1435.625244,602.462158 1403.081177,588.201599 1387.543701,558.812744 
	C1378.376343,541.472900 1376.389404,522.926880 1379.796997,503.619202 
	C1382.394775,488.899536 1388.460083,475.998840 1399.053467,465.529053 
	C1432.651489,432.323486 1487.989868,441.569366 1509.045776,483.807190 
	C1522.302002,510.399017 1519.670898,552.624084 1495.771606,575.802612 
	C1488.362427,582.988342 1479.827881,588.274292 1469.838623,592.037231 
z"/>
<path fill="#FAF8FB" opacity="1.000000" stroke="none" 
	d="
M579.229126,471.264221 
	C591.481995,454.174866 607.630798,445.380951 628.479126,444.709900 
	C649.600281,444.030151 667.885803,449.911011 682.338623,465.817444 
	C690.124207,474.386017 693.797546,484.706085 694.651978,496.117645 
	C694.914917,499.628906 692.684387,500.119720 689.807861,500.097351 
	C678.979126,500.013031 668.149414,500.048706 657.320068,500.046173 
	C629.830322,500.039703 602.340271,499.968964 574.851196,500.103180 
	C570.539246,500.124268 568.165649,499.326050 570.019348,494.517456 
	C572.976868,486.845764 576.004761,479.201202 579.229126,471.264221 
z"/>
<path fill="#FAF8FB" opacity="1.000000" stroke="none" 
	d="
M980.994995,444.807312 
	C1000.638550,444.502930 1017.099792,450.891937 1030.228882,464.952759 
	C1038.208496,473.498688 1042.521851,483.782013 1043.186646,495.559357 
	C1043.384888,499.069550 1042.073608,500.135254 1038.587891,500.126282 
	C999.925110,500.026764 961.261719,500.015472 922.599060,500.135620 
	C917.990112,500.149933 917.443726,498.608856 918.351074,494.427490 
	C922.943298,473.265198 934.699524,457.966858 954.642334,449.286407 
	C962.847473,445.714996 971.525208,444.247406 980.994995,444.807312 
z"/>
<path fill="#F3F1F6" opacity="1.000000" stroke="none" 
	d="
M1278.251587,722.548828 
	C1286.316162,730.667969 1285.282593,743.602051 1276.555542,748.409485 
	C1271.476562,751.207397 1266.623779,750.676392 1262.022705,747.468689 
	C1256.900635,743.897888 1254.741943,734.989929 1257.232910,728.392151 
	C1259.343872,722.800720 1265.501343,719.130249 1272.052002,719.963867 
	C1274.082886,720.222229 1275.983154,721.506592 1278.251587,722.548828 
z"/>
<path fill="#F3F1F6" opacity="1.000000" stroke="none" 
	d="
M740.806213,735.840088 
	C740.884460,742.750732 737.284363,746.966431 731.791504,749.348755 
	C727.037720,751.410461 722.200989,750.375122 718.368591,746.827637 
	C714.095093,742.871887 712.159607,737.794861 713.476746,731.998352 
	C715.533142,722.948669 720.848511,719.121826 729.360901,719.854797 
	C734.762695,720.320007 741.970276,726.670349 740.806213,735.840088 
z"/>
<path fill="#F3F1F6" opacity="1.000000" stroke="none" 
	d="
M596.838379,719.831543 
	C607.460144,721.096619 610.329712,729.711914 609.909790,736.072144 
	C609.337585,744.737793 602.799927,750.627319 594.947754,750.133362 
	C587.524170,749.666260 582.065918,742.961609 582.144226,734.405945 
	C582.222229,725.883789 587.897034,720.085327 596.838379,719.831543 
z"/>
<path fill="#F3F1F6" opacity="1.000000" stroke="none" 
	d="
M797.652954,746.407471 
	C792.623047,740.916809 791.944397,734.797119 794.281982,728.501526 
	C796.849915,721.585815 803.990723,718.250000 810.904419,720.124695 
	C816.770142,721.715332 821.571228,729.009705 820.989807,735.675232 
	C820.465881,741.680237 817.980103,746.629211 812.227051,749.134399 
	C807.057922,751.385315 802.202881,750.324219 797.652954,746.407471 
z"/>
<path fill="#F4F1F7" opacity="1.000000" stroke="none" 
	d="
M1047.189453,742.879395 
	C1043.278809,748.655457 1038.283936,751.386292 1031.649902,749.709412 
	C1025.970703,748.273865 1021.748535,742.484497 1021.146179,735.929871 
	C1020.578796,729.756592 1023.930481,723.792847 1029.643921,720.809509 
	C1037.774780,716.563904 1048.461548,723.067383 1048.968506,732.894836 
	C1049.132080,736.067993 1047.923340,739.311951 1047.189453,742.879395 
z"/>
<path fill="#F4F1F7" opacity="1.000000" stroke="none" 
	d="
M896.518494,725.721924 
	C901.293274,720.228577 906.927979,718.207520 912.186462,720.291199 
	C916.884033,722.152588 921.649353,727.257324 921.530762,734.185730 
	C921.413269,741.048279 919.324646,746.136780 912.997559,749.046387 
	C907.957397,751.364258 903.084961,750.569885 899.178223,746.842346 
	C894.439087,742.320496 892.458496,736.699646 894.696228,730.141174 
	C895.170349,728.751465 895.758606,727.400696 896.518494,725.721924 
z"/>
<path fill="#F3F1F6" opacity="1.000000" stroke="none" 
	d="
M1583.520996,726.857117 
	C1588.732666,719.748108 1594.989990,717.815613 1601.348267,721.046143 
	C1607.110474,723.973816 1610.994141,732.323486 1609.335449,738.218323 
	C1607.021851,746.440796 1601.507324,750.681824 1593.905884,750.084534 
	C1585.501709,749.424072 1579.558716,739.222229 1582.218506,729.972290 
	C1582.491821,729.021729 1582.973511,728.131165 1583.520996,726.857117 
z"/>
<path fill="#EBE5F2" opacity="1.000000" stroke="none" 
	d="
M1331.846436,730.208862 
	C1326.539062,730.205627 1321.713013,730.190247 1316.886963,730.205139 
	C1313.666016,730.215027 1313.088989,728.510193 1314.388550,726.019226 
	C1316.458008,722.052734 1319.708862,719.999146 1324.345093,719.695435 
	C1329.657349,719.347351 1333.951660,720.882263 1336.777954,725.384521 
	C1338.666870,728.393372 1337.084595,729.993286 1331.846436,730.208862 
z"/>
<path fill="#E6DFEF" opacity="1.000000" stroke="none" 
	d="
M1183.623291,724.831421 
	C1190.199829,718.083069 1197.967285,717.323364 1203.432739,722.914551 
	C1204.967529,724.484741 1205.643311,726.894653 1207.313843,730.056396 
	C1198.141846,730.056396 1190.492676,730.056396 1181.944214,730.056396 
	C1182.552734,728.013733 1182.979980,726.579102 1183.623291,724.831421 
z"/>
<path fill="#F4F1F7" opacity="1.000000" stroke="none" 
	d="
M1713.201172,722.590942 
	C1719.401733,728.637512 1720.660034,734.091431 1717.753296,741.264221 
	C1715.503784,746.815063 1710.608398,750.099243 1704.566772,750.110596 
	C1698.664795,750.121704 1694.944580,747.228455 1692.160400,740.461609 
	C1689.843262,734.830139 1691.405151,727.828796 1695.940552,723.516846 
	C1700.025757,719.632874 1705.382812,718.796082 1710.677490,721.228333 
	C1711.432495,721.575195 1712.161865,721.977844 1713.201172,722.590942 
z"/>
</svg>